<?xml version="1.0" encoding="UTF-8" standalone="no"?>
<svg
   width="920.52924"
   zoomAndPan="magnify"
   viewBox="0 0 690.39693 185.43001"
   height="247.24002"
   preserveAspectRatio="xMidYMid"
   version="1.0"
   id="svg44"
   sodipodi:docname="Flammkuchen.svg"
   xml:space="preserve"
   xmlns:inkscape="http://www.inkscape.org/namespaces/inkscape"
   xmlns:sodipodi="http://sodipodi.sourceforge.net/DTD/sodipodi-0.dtd"
   xmlns="http://www.w3.org/2000/svg"
   xmlns:svg="http://www.w3.org/2000/svg"><sodipodi:namedview
     id="namedview44"
     pagecolor="#ffffff"
     bordercolor="#000000"
     borderopacity="0.25"
     inkscape:showpageshadow="2"
     inkscape:pageopacity="0.0"
     inkscape:pagecheckerboard="0"
     inkscape:deskcolor="#d1d1d1"><inkscape:page
       x="0"
       y="3.4237031e-14"
       width="690.39691"
       height="185.43001"
       id="page2"
       margin="0"
       bleed="0" /></sodipodi:namedview><defs
     id="defs4" /><path
     style="fill:#000000"
     d="m 541.40511,184.48768 c -5.63162,-2.8942 -6.5842,-10.7168 -3.49203,-28.6764 2.21854,-12.8855 8.61435,-41.2552 11.38832,-50.5148 1.03223,-3.4457 1.68248,-6.459201 1.445,-6.696601 -0.23748,-0.2375 -2.19957,0.1083 -4.36019,0.7685 -28.37917,8.671201 -62.7154,8.747501 -72.5534,0.1612 -0.92797,-0.8099 -1.91311,-0.7996 -5.625,0.059 -9.17835,2.122501 -20.51838,3.415201 -29.77303,3.393901 -10.36347,-0.024 -15.36667,-0.8289 -19.21423,-3.091501 -2.47491,-1.4554 -2.52513,-1.4546 -10.125,0.154101 -5.75196,1.2175 -10.32282,1.6235 -18.51274,1.6444 -11.91722,0.03 -17.36754,-1.0478 -21.27095,-4.207701 l -2.14594,-1.7372 -5.35406,1.4491 c -7.67204,2.0764 -25.42339,2.2033 -31.11,0.2223 -12.8388,-4.4725 -14.82534,-16.8959 -4.25911,-26.63555 7.20703,-6.64321 20.35541,-11.10788 34.89006,-11.8473 14.1674,-0.72073 24.71437,1.83464 26.36664,6.38824 0.52672,1.4516 0.19142,2.20704 -1.91403,4.3125 -3.07963,3.07963 -5.76662,3.33626 -7.48426,0.71482 -4.80422,-7.33216 -34.10302,-2.48796 -42.73405,7.06556 -4.45059,4.92623 -3.44787,10.14093 2.33052,12.11983 3.66181,1.254 14.12392,1.2569 21.00052,0.01 4.92941,-0.8969 5.4834,-1.1771 5.89889,-2.9841 1.91289,-8.3193 13.30067,-14.60235 24.03521,-13.26116 4.12542,0.51544 7.54837,2.66195 7.80089,4.89186 0.55286,4.8823 -2.3324,8.4553 -9.84684,12.194 -2.92533,1.4554 -4.98461,2.8528 -4.57618,3.1052 1.65743,1.0244 12.20212,1.3056 19.18627,0.5117 10.51217,-1.1949 10.93642,-1.3416 10.93642,-3.7813 0,-4.544 6.82559,-11.103 13.66922,-13.13533 2.11917,-0.62932 5.99636,-1.14422 8.61599,-1.14422 14.43389,0 15.36721,9.74095 1.56494,16.33325 -2.35116,1.1229 -4.29179,2.3448 -4.3125,2.7152 -0.0503,0.8992 22.7547,-0.046 29.95379,-1.2409 l 5.61643,-0.9326 0.5061,-3.5429 c 1.12844,-7.8998 8.7001,-13.3801 20.1377,-14.57557 8.60699,-0.89961 14.24833,1.90083 14.24833,7.07307 0,2.2423 -0.60428,3.2728 -3.58923,6.1208 -2.24714,2.1441 -5.34192,4.1018 -8.27657,5.2356 -2.73232,1.0556 -4.40944,2.0888 -4.02105,2.4772 2.21834,2.2183 27.52578,1.9346 44.76185,-0.5019 10.76826,-1.5222 20.86809,-3.3801 21.8755,-4.024 0.44073,-0.2818 2.40154,-6.4185 4.35737,-13.6373 1.95582,-7.2187 4.04164,-14.06771 4.63516,-15.21997 3.59749,-6.9842 11.94389,-1.78346 11.71165,7.29768 -0.0559,2.18697 -1.38564,7.69577 -3.13553,12.99009 -5.91386,17.892301 -10.22599,34.082301 -15.0611,56.546901 -2.62088,12.177 -5.2929,29.4005 -4.65942,30.034 0.32952,0.3295 1.91688,-0.7504 3.52746,-2.3998 2.96041,-3.0317 5.32839,-3.7444 6.97391,-2.0989 2.4733,2.4733 -0.88765,10.6059 -6.98448,16.9005 -3.60645,3.7235 -4.03764,3.9489 -7.53297,3.9385 -2.03915,-0.01 -4.51877,-0.428 -5.51025,-0.9375 z M 431.57814,86.042479 c 2.15008,-1.8993 2.53956,-2.5517 1.53729,-2.575 -3.04657,-0.071 -8.78262,4.0147 -8.78262,6.2555 0,0.9731 4.653,-1.3905 7.24533,-3.6805 z m 58.45404,-1.9384 c 1.22694,-1.3558 1.19808,-1.4178 -0.65931,-1.4178 -1.06832,0 -2.72376,0.3001 -3.67874,0.6668 -2.4341,0.9349 -5.86132,4.2773 -5.86132,5.7163 0,0.9751 0.85025,0.7517 4.45813,-1.1713 2.45197,-1.3069 5.03553,-3.0142 5.74124,-3.794 z m -108.772,0.7961 c 3.18563,-2.1917 4.21984,-3.7139 2.52332,-3.7139 -1.9175,0 -7.45069,3.9959 -7.45069,5.3807 0,1.1628 1.60271,0.6207 4.92737,-1.6668 z M 0.58280793,165.93628 v -15 H 11.082808 c 8.73247,0 10.5,0.1853 10.5,1.1012 0,0.8938 -1.65977,1.141 -8.8125,1.3125 l -8.8125,0.2113 -0.21905,5.8125 -0.21905,5.8125 h 7.90655 c 7.40655,0 7.90655,0.095 7.90655,1.5 0,1.4047 -0.5,1.5 -7.875,1.5 h -7.875 v 6.375 c 0,5.875 -0.11765,6.375 -1.5,6.375 -1.45000007,0 -1.50000007,-0.5 -1.50000007,-15 z m 40.50000007,0 c 0,-14.5 0.05,-15 1.5,-15 1.44434,0 1.5,0.5 1.5,13.4754 v 13.4754 l 8.42852,0.2121 c 7.33175,0.1845 8.46124,0.3829 8.67999,1.5246 0.22951,1.1979 -0.63749,1.3125 -9.92852,1.3125 h -10.17999 z m 35.51925,11.0625 c 9.17589,-20.6418 11.99044,-26.0622 13.5272,-26.0518 1.32014,0.01 2.65285,2.3755 8.14105,14.4559 3.609372,7.9448 6.562502,14.6899 6.562502,14.9892 0,0.2993 -0.64273,0.5442 -1.42829,0.5442 -1.02403,0 -1.91222,-1.1676 -3.13802,-4.125 l -1.709712,-4.125 h -8.43201 -8.43201 l -1.88849,4.125 c -1.39057,3.0374 -2.29242,4.125 -3.42052,4.125 -1.51499,0 -1.51257,-0.044 0.2183,-3.9375 z m 18.79552,-10.875 c -1.05397,-2.3719 -2.61783,-5.9338 -3.47524,-7.9153 -0.85741,-1.9816 -1.82167,-3.3316 -2.14281,-3 -0.5695,0.5879 -6.69672,14.2084 -6.69672,14.8864 0,0.1878 3.20199,0.3414 7.11554,0.3414 h 7.11554 z m 28.185232,-0.1875 c 0,-19.2428 0.18705,-19.3283 9.02578,-4.125 3.47732,5.9812 6.49718,10.8698 6.71081,10.8634 0.21362,-0.01 3.20268,-4.9001 6.64235,-10.875 4.61375,-8.0143 6.62992,-10.8634 7.6875,-10.8634 1.36362,0 1.43356,0.7317 1.43356,15 0,14.5 -0.05,15 -1.5,15 -1.43573,0 -1.5,-0.5 -1.5,-11.6693 0,-6.4181 -0.29124,-11.4893 -0.64719,-11.2693 -0.35596,0.22 -3.08392,4.6274 -6.06214,9.7943 -2.97822,5.1668 -5.71972,9.3943 -6.09222,9.3943 -0.3725,0 -3.29766,-4.4591 -6.50036,-9.9092 l -5.82309,-9.9091 -0.20655,11.7841 c -0.19567,11.1639 -0.28449,11.7842 -1.6875,11.7842 -1.42524,0 -1.48095,-0.5643 -1.48095,-15 z m 54,0 c 0,-19.2428 0.18705,-19.3283 9.02578,-4.125 3.47732,5.9812 6.49718,10.8698 6.71081,10.8634 0.21362,-0.01 3.20268,-4.9001 6.64235,-10.875 4.61375,-8.0143 6.62992,-10.8634 7.6875,-10.8634 1.36362,0 1.43356,0.7317 1.43356,15 0,14.5 -0.05,15 -1.5,15 -1.43573,0 -1.5,-0.5 -1.5,-11.6693 0,-6.4181 -0.29124,-11.4893 -0.64719,-11.2693 -0.35596,0.22 -3.08392,4.6274 -6.06214,9.7943 -2.97822,5.1668 -5.71972,9.3943 -6.09222,9.3943 -0.3725,0 -3.29766,-4.4591 -6.50036,-9.9092 l -5.82309,-9.9091 -0.20655,11.7841 c -0.19567,11.1639 -0.28449,11.7842 -1.6875,11.7842 -1.42524,0 -1.48095,-0.5643 -1.48095,-15 z m 54,0 c 0,-14.5 0.05,-15 1.5,-15 1.41304,0 1.5,0.5 1.5,8.625 0,4.7437 0.24805,8.625 0.55123,8.625 0.30318,0 4.47626,-3.9148 9.2735,-8.6996 5.71724,-5.7023 9.17107,-8.6092 10.02494,-8.4375 0.9888,0.1989 -0.18073,1.8466 -4.85396,6.8383 -5.47933,5.8527 -6.04465,6.7188 -5.13868,7.8722 0.55988,0.7128 3.66353,4.4192 6.89699,8.2363 5.36238,6.3304 5.71448,6.9403 4.00667,6.9403 -1.43279,0 -3.33597,-1.6882 -8.10671,-7.1909 l -6.23436,-7.1909 -3.20981,3.3972 c -2.90895,3.0788 -3.20981,3.7528 -3.20981,7.1909 0,3.2937 -0.1977,3.7937 -1.5,3.7937 -1.45,0 -1.5,-0.5 -1.5,-15 z m 48.67341,13.2975 c -4.42301,-2.9547 -5.17093,-5.5012 -5.17225,-17.61 -0.001,-10.1879 0.069,-10.6875 1.49884,-10.6875 1.42557,0 1.5,0.5 1.5,10.0761 0,10.6711 0.4351,12.8733 3.01895,15.2806 3.50917,3.2692 10.77508,2.4557 13.73903,-1.5384 1.32659,-1.7877 1.56907,-3.4801 1.8536,-12.9375 0.30818,-10.244 0.41449,-10.8808 1.81628,-10.8808 1.42876,0 1.47757,0.432 1.20764,10.6875 -0.32179,12.2261 -1.40605,15.5149 -5.91167,17.9313 -3.76295,2.018 -10.27993,1.8636 -13.55042,-0.3213 z m 47.25705,-0.041 c -13.31156,-7.0207 -8.96431,-27.0239 6.11003,-28.1143 5.10903,-0.3696 6.89511,0 10.33912,2.1219 1.93138,1.1917 2.31644,1.7721 1.68245,2.536 -0.67018,0.8075 -1.46865,0.6634 -4.31922,-0.7798 -1.92338,-0.9737 -4.53673,-1.763 -5.80745,-1.7539 -3.20895,0.023 -8.11325,2.3945 -10.0543,4.8622 -8.75967,11.1361 4.63963,25.6896 16.83715,18.2875 1.96343,-1.1915 2.4816,-1.2553 3.19675,-0.3936 1.03679,1.2492 0.10552,2.1686 -3.88593,3.8364 -4.12907,1.7252 -10.17524,1.4669 -14.0986,-0.6024 z m 38.31954,-13.2566 c 0,-14.4007 0.0588,-15 1.4708,-15 1.33249,0 1.49118,0.6171 1.6875,6.5625 l 0.2167,6.5625 9.5625,0.2099 9.5625,0.2099 v -6.7724 c 0,-6.2724 0.11074,-6.7724 1.5,-6.7724 1.45,0 1.5,0.5 1.5,15 0,14.4044 -0.0584,15 -1.47186,15 -1.34085,0 -1.49105,-0.6175 -1.6875,-6.9375 l -0.21564,-6.9375 h -9.375 -9.375 l -0.21565,6.9375 c -0.19645,6.32 -0.34664,6.9375 -1.6875,6.9375 -1.41341,0 -1.47185,-0.5956 -1.47185,-15 z m 48.75,0 v -15 h 10.125 c 8.5,0 10.125,0.1805 10.125,1.125 0,0.9348 -1.45833,1.125 -8.625,1.125 h -8.625 v 5.625 5.625 h 7.5 c 6.16667,0 7.5,0.2 7.5,1.125 0,0.925 -1.33333,1.125 -7.5,1.125 h -7.5 v 5.625 5.625 h 9 c 8.5,0 9,0.083 9,1.5 0,1.4286 -0.5,1.5 -10.5,1.5 h -10.5 z m 41.25,0 c 0,-14.3244 0.0653,-15 1.4491,-15 0.97782,0 4.57563,3.9596 11.0625,12.1748 l 9.6134,12.1748 0.20608,-12.1748 c 0.19557,-11.5544 0.28157,-12.1748 1.6875,-12.1748 1.42584,0 1.48142,0.5627 1.48142,15 0,13.9576 -0.094,15 -1.35321,15 -0.85042,0 -4.96066,-4.5282 -11.0625,-12.1875 l -9.70929,-12.1875 -0.20608,12.1875 c -0.19559,11.567 -0.2815,12.1875 -1.6875,12.1875 -1.42585,0 -1.48142,-0.5627 -1.48142,-15 z m 182.625,-30.7839 c -23.47001,-1.7572 -50.44235,-9.9654 -62.33861,-18.971 -5.4009,-4.0885 -7.50108,-7.5587 -5.97349,-9.8701 1.51282,-2.2891 2.84504,-2.1665 6.92048,0.6369 15.78929,10.8611 46.74447,18.0391 72.26662,16.7574 13.56545,-0.6812 24.16135,-4.2879 25.24155,-8.5918 1.9666,-7.8355 -16.29986,-15.296301 -54.49155,-22.256801 -34.62085,-6.3097 -36.18316,-6.6502 -38.10874,-8.3065 -1.46494,-1.2601 -1.76055,-2.0368 -1.36896,-3.597 0.64802,-2.5819 3.16002,-3.81223 10.9777,-5.37651 29.81825,-5.96648 54.04812,-13.92194 59.18585,-19.43266 1.75707,-1.88463 1.77044,-1.98697 0.45007,-3.44597 -1.72546,-1.90661 -4.79892,-2.76806 -14.63592,-4.10226 -12.11454,-1.64309 -27.74553,-2.11804 -39.67211,-1.20543 -14.55253,1.11354 -22.74064,2.60645 -34.95289,6.37285 -5.56859,1.71741 -9.09433,1.52163 -11.24011,-0.62415 -2.35039,-2.35039 -1.63229,-5.48449 1.70293,-7.43237 3.39307,-1.98165 18.43397,-5.47605 29.78718,-6.92034 20.16612,-2.56542 56.63488,-1.18928 70.73199,2.66905 15.25506,4.17526 19.70246,10.62304 12.45016,18.05003 -5.6205,5.75596 -15.82505,9.96263 -40.02323,16.499 -7.6126,2.05626 -13.94948,3.84706 -14.08196,3.97956 -0.13248,0.1325 1.70851,0.4635 4.09109,0.7356 11.57888,1.3224 36.29545,6.9477 46.4085,10.5622 9.5423,3.4105 16.2748,7.3077 21.8597,12.653801 7.7645,7.4324 8.8447,14.569 3.1813,21.0193 -2.6446,3.0121 -9.2471,6.5996 -15.3676,8.3501 -3.7495,1.0724 -20.46689,2.7815 -24.37495,2.4919 -0.61875,-0.046 -4.5,-0.336 -8.625,-0.6448 z M 30.207808,110.38998 c -14.55614,-1.0418 -25.85057,-4.43 -28.56203,-8.5682 -5.51199,-8.412401 2.55923,-17.697201 28.18703,-32.425431 C 67.251998,47.891689 123.50284,26.844209 181.64484,12.592579 218.88834,3.4635289 241.3839,-0.05901111 262.0584,7.3889202e-4 273.12012,0.03273889 278.83106,1.2473989 282.08118,4.2594989 c 2.54075,2.3547 2.54944,4.91055 0.0269,7.9084601 -1.64325,1.95288 -2.42728,2.30879 -4.67026,2.12004 -1.94258,-0.16347 -2.93791,-0.71582 -3.56337,-1.97746 -0.47734,-0.96285 -1.24345,-2.12621 -1.70248,-2.5852301 -1.44338,-1.44338 -9.09495,-1.90324 -19.58913,-1.17731 C 213.9674,11.219199 153.89935,27.123349 97.707838,49.554079 c -33.01079,13.17737 -67.76702,31.21 -77.35442,40.1339 -6.00783,5.5921 -5.20835,6.886 5.72942,9.2723 9.07451,1.979901 45.91466,2.122201 77.250002,0.2985 31.18897,-1.8152 34.28823,-2.0229 90.375,-6.0589 22.2398,-1.6003 25.18516,-1.8126 42.375,-3.054 5.98125,-0.4319 19.75594,-1.2286 30.61042,-1.7704 10.85448,-0.5418 20.01397,-1.2842 20.35442,-1.6497 1.67139,-1.7945 14.56705,-51.1818 16.91414,-64.77715 0.67535,-3.9119 1.58268,-7.54003 2.0163,-8.0625 1.11668,-1.34552 4.86348,-1.17726 7.42054,0.33323 3.09414,1.82775 3.95988,5.04201 2.92378,10.85511 -0.90105,5.05534 -7.99165,32.89573 -12.46507,48.94257 -1.48815,5.33824 -2.88348,11.03114 -3.10073,12.65084 l -0.39501,2.945 6.6731,-0.4979 c 5.92565,-0.4421 6.94614,-0.3272 9.11061,1.0256 2.94142,1.8385 3.26766,4.6238 0.75,6.4033 -1.9056,1.3468 -11.49608,4.351301 -18.03386,5.649601 -7.90315,1.5694 -13.52864,-0.5681 -13.52864,-5.140401 0,-1.8994 -0.30861,-2.3663 -1.5625,-2.3639 -2.68531,0 -36.63657,2.1931 -40.1875,2.5898 -1.85625,0.2074 -5.90625,0.5618 -9,0.7875 -7.45532,0.5441 -28.93209,2.322001 -54,4.470401 -7.21875,0.6187 -21.05625,1.8047 -30.75,2.6356 -9.69375,0.8309 -24.0375,2.0233 -31.875,2.6499 -28.708132,2.2949 -73.320862,3.6003 -87.750002,2.5676 z"
     id="path44" /></svg>
